<?xml version="1.0" encoding="utf-8"?>
<!-- Generator: Adobe Illustrator 22.1.0, SVG Export Plug-In . SVG Version: 6.00 Build 0)  -->
<svg version="1.1" id="Layer_1" xmlns="http://www.w3.org/2000/svg" xmlns:xlink="http://www.w3.org/1999/xlink" x="0px" y="0px"
	 viewBox="0 0 36 36" style="enable-background:new 0 0 36 36;" xml:space="preserve">
<style type="text/css">
	.st0{fill:#D93500;}
</style>
<title>control_arrow_red_left</title>
<path class="st0" d="M14.7,24.3c0.3,0.3,0.7,0.3,0.9,0s0.3-0.7,0-0.9l-4.8-4.7h16c0.4,0,0.7-0.3,0.7-0.7c0-0.4-0.3-0.6-0.7-0.6h-16
	l4.8-4.7c0.3-0.3,0.3-0.7,0-0.9c0,0,0,0,0,0c-0.3-0.3-0.7-0.3-0.9,0c0,0,0,0,0,0l-6,5.8c-0.3,0.2-0.3,0.6-0.1,0.9
	c0,0,0.1,0.1,0.1,0.1L14.7,24.3z"/>
</svg>
