<?xml version="1.0" encoding="utf-8"?>
<!-- Generator: Adobe Illustrator 22.1.0, SVG Export Plug-In . SVG Version: 6.00 Build 0)  -->
<svg version="1.1" id="Capa_1" xmlns="http://www.w3.org/2000/svg" xmlns:xlink="http://www.w3.org/1999/xlink" x="0px" y="0px"
	 viewBox="0 0 36 36" style="enable-background:new 0 0 36 36;" xml:space="preserve">
<style type="text/css">
	.st0{fill:#FFFFFF;}
	.st1{fill:none;}
</style>
<title>control_arrow_white_right</title>
<path class="st0" d="M21.3,11.5c-0.2-0.3-0.7-0.3-0.9,0c0,0,0,0,0,0c-0.3,0.3-0.3,0.7,0,0.9l4.8,4.8h-16c-0.4,0-0.7,0.3-0.7,0.7
	c0,0.4,0.3,0.7,0.7,0.7h16l-4.8,4.8c-0.3,0.3-0.3,0.7,0,1c0.2,0.3,0.7,0.3,0.9,0c0,0,0,0,0,0l6-6c0.3-0.3,0.3-0.7,0-0.9c0,0,0,0,0,0
	L21.3,11.5z"/>
<rect class="st1" width="36" height="36"/>
</svg>
