<?xml version="1.0" encoding="utf-8"?>
<!-- Generator: Adobe Illustrator 22.1.0, SVG Export Plug-In . SVG Version: 6.00 Build 0)  -->
<svg version="1.1" id="Capa_1" xmlns="http://www.w3.org/2000/svg" xmlns:xlink="http://www.w3.org/1999/xlink" x="0px" y="0px"
	 viewBox="0 0 36 36" style="enable-background:new 0 0 36 36;" xml:space="preserve">
<style type="text/css">
	.st0{fill:#FFFFFF;}
</style>
<title>control_arrow_white_left</title>
<path class="st0" d="M14.8,11.4c0.2-0.2,0.7-0.2,1,0l0,0c0.2,0.2,0.2,0.7,0,1L11,17.2h16c0.4,0.1,0.7,0.4,0.6,0.7
	c-0.1,0.3-0.3,0.6-0.6,0.6H10.9l4.8,4.8c0.2,0.2,0.2,0.7,0,1c-0.2,0.2-0.7,0.2-1,0l0,0l-6-5.9c-0.2-0.2-0.2-0.7,0-0.9L14.8,11.4z"/>
</svg>
