<?xml version="1.0" encoding="utf-8"?>
<!-- Generator: Adobe Illustrator 22.1.0, SVG Export Plug-In . SVG Version: 6.00 Build 0)  -->
<svg version="1.1" id="Layer_1" xmlns="http://www.w3.org/2000/svg" xmlns:xlink="http://www.w3.org/1999/xlink" x="0px" y="0px"
	 viewBox="0 0 36 36" style="enable-background:new 0 0 36 36;" xml:space="preserve">
<style type="text/css">
	.st0{fill:#D93500;}
</style>
<title>control_arrow_red_right</title>
<path class="st0" d="M21.3,11.7c-0.3-0.3-0.7-0.3-0.9,0c0,0,0,0,0,0c-0.3,0.2-0.3,0.7,0,0.9c0,0,0,0,0,0l4.8,4.7h-16
	c-0.4,0-0.7,0.3-0.7,0.7c0,0.4,0.3,0.6,0.7,0.6c0,0,0,0,0,0h16l-4.8,4.7c-0.3,0.3-0.3,0.7,0,0.9c0,0,0,0,0,0c0.3,0.3,0.7,0.3,0.9,0
	c0,0,0,0,0,0l6-5.8c0.3-0.2,0.3-0.7,0-0.9c0,0,0,0,0,0L21.3,11.7z"/>
</svg>
