<?xml version="1.0" encoding="utf-8"?>
<!-- Generator: Adobe Illustrator 23.0.3, SVG Export Plug-In . SVG Version: 6.00 Build 0)  -->
<svg version="1.1" id="Capa_1" xmlns="http://www.w3.org/2000/svg" xmlns:xlink="http://www.w3.org/1999/xlink" x="0px" y="0px"
	 viewBox="0 0 554.7 554.7" style="enable-background:new 0 0 554.7 554.7;" xml:space="preserve">
<style type="text/css">
	.st0{fill:#010002;}
</style>
<g>
	<g>
		<path class="st0" d="M548.9,164.4c4.9,6.1,6.7,13.5,5.5,22l-23.3,133.4c-0.8,6.9-4,12.6-9.5,17.1c-5.5,4.5-11.7,6.7-18.7,6.7h-339
			l-6.7,37.9h323.1c7.8,0,14.5,2.8,20.2,8.3c5.7,5.5,8.6,12.3,8.6,20.5s-2.9,15-8.6,20.5c-5.7,5.5-12.4,8.3-20.2,8.3H122.9
			c-8.6,0-15.9-3.5-22-10.4c-5.7-6.9-8-14.9-6.7-23.9l15.3-83.2L86.2,87.9L20.1,67.1C12.4,64.7,6.7,60,3.3,53
			c-3.5-6.9-4.2-14.3-2.1-22c2.4-7.8,7.2-13.4,14.4-16.8S29.9,10,37.2,12L121.7,39c5.3,1.6,9.7,4.7,13.2,9.2s5.6,9.6,6.4,15.3
			l4.9,46.5l383.1,42.8C537.9,154,544.4,157.9,548.9,164.4z M166.4,455.1c12.2,0,22.6,4.3,31.2,12.9c8.6,8.6,12.9,19,12.9,31.2
			c0,12.2-4.3,22.7-12.9,31.5c-8.6,8.8-19,13.2-31.2,13.2s-22.6-4.4-31.2-13.2c-8.6-8.8-12.9-19.3-12.9-31.5s4.3-22.6,12.9-31.2
			C143.7,459.4,154.1,455.1,166.4,455.1z M427.7,455.1c12.2,0,22.6,4.3,31.2,12.9c8.6,8.6,12.9,19,12.9,31.2
			c0,12.2-4.3,22.7-12.9,31.5c-8.6,8.8-19,13.2-31.2,13.2c-12.2,0-22.6-4.4-31.2-13.2c-8.6-8.8-12.9-19.3-12.9-31.5
			s4.3-22.6,12.9-31.2C405.1,459.4,415.5,455.1,427.7,455.1z"/>
	</g>
</g>
</svg>
