<?xml version="1.0" encoding="utf-8"?>
<!-- Generator: Adobe Illustrator 22.1.0, SVG Export Plug-In . SVG Version: 6.00 Build 0)  -->
<svg version="1.1" id="Layer_1" xmlns="http://www.w3.org/2000/svg" xmlns:xlink="http://www.w3.org/1999/xlink" x="0px" y="0px"
	 viewBox="0 0 64 50" style="enable-background:new 0 0 64 50;" xml:space="preserve">
<style type="text/css">
	.st0{fill:#CBCBCB;}
</style>
<title>icon_grey_arrow_r</title>
<path class="st0" d="M36.3,15.8c-0.3-0.3-0.8-0.4-1.1-0.1c0,0-0.1,0-0.1,0.1l0,0c-0.3,0.4-0.3,0.9,0,1.3l0,0l6.4,6.9H20.4
	c-0.5,0-0.9,0.5-0.9,1c0,0,0,0,0,0c0,0.5,0.4,0.9,0.9,0.9c0,0,0,0,0,0h21.1l-6.4,6.9c-0.3,0.4-0.3,1,0,1.3l0,0
	c0.3,0.3,0.8,0.4,1.1,0.1c0,0,0.1,0,0.1-0.1l0,0l7.9-8.5c0.3-0.4,0.3-0.9,0-1.3l0,0L36.3,15.8z"/>
</svg>
